<svg width="512" height="512" viewBox="0 0 512 512" fill="none" xmlns="http://www.w3.org/2000/svg">
  <!-- Background circle with gradient -->
  <defs>
    <linearGradient id="bg_gradient" x1="0" y1="0" x2="512" y2="512" gradientUnits="userSpaceOnUse">
      <stop stop-color="#1e3a8a"/>
      <stop offset="1" stop-color="#2563eb"/>
    </linearGradient>
  </defs>
  <circle cx="256" cy="256" r="256" fill="url(#bg_gradient)"/>
  
  <!-- Main graduation cap (detailed) -->
  <g transform="translate(256, 140)">
    <path d="M-110 70l110-55 110 55-110 55-110-55z" fill="white"/>
    <path d="M-55 95v55c0 27.5 24.75 55 55 55s55-27.5 55-55v-55" stroke="white" stroke-width="10" fill="none"/>
    <circle cx="97" cy="42" r="12" fill="white"/>
    <rect x="97" y="54" width="6" height="42" fill="white"/>
  </g>
  
  <!-- Ballot box element -->
  <g transform="translate(256, 320)">
    <rect x="-65" y="-25" width="130" height="80" rx="10" fill="white" opacity="0.95"/>
    <circle cx="-35" cy="-5" r="8" fill="#2563eb"/>
    <rect x="-15" y="-9" width="60" height="8" rx="2" fill="#2563eb"/>
    <circle cx="-35" cy="20" r="8" fill="#2563eb"/>
    <rect x="-15" y="16" width="45" height="8" rx="2" fill="#2563eb"/>
    <circle cx="-35" cy="45" r="8" fill="#2563eb"/>
    <rect x="-15" y="41" width="35" height="8" rx="2" fill="#2563eb"/>
  </g>
  
  <!-- Text elements -->
  <text x="256" y="450" font-family="Arial, sans-serif" font-size="48" font-weight="bold" fill="white" text-anchor="middle">GCN</text>
  <text x="256" y="485" font-family="Arial, sans-serif" font-size="32" fill="white" text-anchor="middle" opacity="0.9">ELECTION 2025</text>
</svg>
